# xmcd CD database file
#
# Track frame offsets:
#	150
#	19716
#	39985
#	65625
#
# Disc length: 1135 seconds
#
# Revision: 2
# Processed by: cddbd v1.5.1PL0 Copyright (c) Steve Scherf et al.
# Submitted via: CDex 1.51
#
DISCID=2b046d04
DTITLE=YUKI - ドラマチック
DYEAR=2005
DGENRE=J-Pop
TTITLE0=ドラマチック
TTITLE1=JOY(LIVE)
TTITLE2=ハローグッバイ(LIVE)
TTITLE3=ドラマチック Less Vocal
EXTD=YEAR: 2005
EXTT0=
EXTT1=
EXTT2=
EXTT3=
PLAYORDER=
